<svg id="Apps_-_Internet-TV_ICON" data-name="Apps - Internet-TV ICON"
    xmlns="http://www.w3.org/2000/svg" width="24" height="24" viewBox="0 0 24 24">
    <rect id="Guide" width="24" height="24" fill="#ffd295" opacity="0"/>
    <path id="_Color" data-name=" ↳Color" d="M21,21H15.749V15.749H21V21Zm-7.875,0H7.875V15.749h5.249V21ZM5.249,21H0V15.749H5.249V21ZM21,13.125H15.749V7.875H21v5.248Zm-7.875,0H7.875V7.875h5.249v5.248Zm-7.875,0H0V7.875H5.249v5.248ZM21,5.249H15.749V0H21V5.248Zm-7.875,0H7.875V0h5.249V5.248Zm-7.875,0H0V0H5.249V5.248Z" transform="translate(2 1)" fill="#ffd295"/>
</svg>
