<svg xmlns="http://www.w3.org/2000/svg" width="24" height="24" viewBox="0 0 24 24">
    <g id="Apps_-_OTT" data-name="Apps - OTT" transform="translate(1.547)">
        <g id="Apps_-_Internet-TV_ICON" data-name="Apps - Internet-TV ICON" transform="translate(-1.547)">
            <rect id="Guide" width="24" height="24" fill="#bcc4cc" opacity="0"/>
            <path id="_Color" data-name=" ↳Color" d="M21,21H15.749V15.749H21V21Zm-7.875,0H7.875V15.749h5.249V21ZM5.249,21H0V15.749H5.249V21ZM21,13.125H15.749V7.875H21v5.248Zm-7.875,0H7.875V7.875h5.249v5.248Zm-7.875,0H0V7.875H5.249v5.248ZM21,5.249H15.749V0H21V5.248Zm-7.875,0H7.875V0h5.249V5.248Zm-7.875,0H0V0H5.249V5.248Z" transform="translate(2 1)" fill="#bcc4cc"/>
        </g>
        <g id="Symbol_268_4" data-name="Symbol 268 – 4" transform="translate(1.225 1.803)">
            <rect id="Rectangle_977" data-name="Rectangle 977" width="8" height="8" rx="2" transform="translate(-0.49 -0.49)" fill="#ffd295"/>
            <rect id="Rectangle_979" data-name="Rectangle 979" width="8" height="8" rx="2" transform="translate(-0.49 11.51)" fill="#ffd295"/>
            <rect id="Rectangle_978" data-name="Rectangle 978" width="8" height="8" rx="2" transform="translate(11.51 -0.49)" fill="#ffd295"/>
            <rect id="Rectangle_980" data-name="Rectangle 980" width="8" height="8" rx="2" transform="translate(11.51 11.51)" fill="#ffd295"/>
        </g>
    </g>
</svg>
