<svg xmlns="http://www.w3.org/2000/svg" width="24" height="24.001" viewBox="0 0 24 24.001">
    <path id="remote" d="M21.011,24h-18A2.89,2.89,0,0,1,.89,23.122,2.894,2.894,0,0,1,.01,21V3A2.89,2.89,0,0,1,.889.879,2.89,2.89,0,0,1,3.01,0h18a2.89,2.89,0,0,1,2.121.879A2.89,2.89,0,0,1,24.01,3V21a3,3,0,0,1-3,3Zm-15-16.289A.6.6,0,0,0,5.543,7.5a.675.675,0,0,0-.492.211L1.7,11.485a.8.8,0,0,0,0,1.031L5.05,16.29a.675.675,0,0,0,.492.211.6.6,0,0,0,.468-.211V7.711ZM16.3,5.04,12.527,1.689a.8.8,0,0,0-1.031,0L7.722,5.04a.652.652,0,0,0,0,.961H16.3a.652.652,0,0,0,0-.961ZM7.512,12a4.481,4.481,0,0,0,4.5,4.5A4.319,4.319,0,0,0,15.2,15.176a4.365,4.365,0,0,0,1.312-3.187,4.481,4.481,0,0,0-4.5-4.488,4.481,4.481,0,0,0-4.5,4.5ZM16.3,17.978H7.722a.652.652,0,0,0,0,.961L11.5,22.29a.8.8,0,0,0,1.031,0L16.3,18.939a.652.652,0,0,0,0-.961Zm6.024-6.492L18.973,7.712A.675.675,0,0,0,18.48,7.5a.6.6,0,0,0-.468.211V16.29a.6.6,0,0,0,.468.211.675.675,0,0,0,.492-.211l3.351-3.774a.8.8,0,0,0,0-1.031Z" transform="translate(-0.01)" fill="#bcc4cc"/>
</svg>
