<svg id="YOUTUBE"
    xmlns="http://www.w3.org/2000/svg" width="82.527" height="18.459" viewBox="0 0 82.527 18.459">
    <g id="Group_18506" data-name="Group 18506">
        <path id="Path_7337" data-name="Path 7337" d="M27.662,3.291A3.317,3.317,0,0,0,25.329.958C23.284.4,15.051.4,15.051.4S6.819.417,4.774.975A3.317,3.317,0,0,0,2.441,3.308,34.654,34.654,0,0,0,1.9,9.63a33.872,33.872,0,0,0,.558,6.339A3.317,3.317,0,0,0,4.791,18.3c2.045.558,10.278.558,10.278.558s8.232,0,10.278-.558a3.317,3.317,0,0,0,2.333-2.333,33.774,33.774,0,0,0,.558-6.339A34.4,34.4,0,0,0,27.662,3.291Z" transform="translate(-1.9 -0.4)" fill="red"/>
        <path id="Path_7338" data-name="Path 7338" d="M64.2,39.511l6.829-3.956L64.2,31.6Z" transform="translate(-53.669 -26.326)" fill="#fff"/>
    </g>
    <g id="Group_18508" data-name="Group 18508" transform="translate(28.923 0.728)">
        <path id="Path_7339" data-name="Path 7339" d="M220.837,43.527a2.868,2.868,0,0,1-1.116-1.64,10.779,10.779,0,0,1-.321-2.958V37.256a9.645,9.645,0,0,1,.372-2.992,2.916,2.916,0,0,1,1.183-1.64,3.887,3.887,0,0,1,2.1-.524,3.53,3.53,0,0,1,2.045.524,3.057,3.057,0,0,1,1.133,1.64,10.133,10.133,0,0,1,.355,2.975v1.674a10.009,10.009,0,0,1-.355,2.958,2.97,2.97,0,0,1-1.133,1.64,3.867,3.867,0,0,1-2.113.524A3.775,3.775,0,0,1,220.837,43.527Zm2.924-1.809a5.4,5.4,0,0,0,.22-1.843v-3.6a5.239,5.239,0,0,0-.22-1.809.78.78,0,0,0-.761-.575.761.761,0,0,0-.744.575,5.3,5.3,0,0,0-.22,1.809v3.6a5.979,5.979,0,0,0,.2,1.843.757.757,0,0,0,.761.558A.784.784,0,0,0,223.761,41.718Z" transform="translate(-211.555 -27.468)" fill="#282828"/>
        <path id="Path_7340" data-name="Path 7340" d="M451.936,38.963v.592A13.858,13.858,0,0,0,452,41.228a1.682,1.682,0,0,0,.27.811.928.928,0,0,0,1.437-.2,3.9,3.9,0,0,0,.237-1.5l2.248.135a2.75,2.75,0,0,1,.017.406,3.016,3.016,0,0,1-.879,2.383,3.578,3.578,0,0,1-2.468.794,2.943,2.943,0,0,1-2.688-1.2,7.089,7.089,0,0,1-.778-3.719V37.087a7.057,7.057,0,0,1,.795-3.787,3.075,3.075,0,0,1,2.738-1.2,3.617,3.617,0,0,1,2.045.49,2.654,2.654,0,0,1,1.014,1.521,10.672,10.672,0,0,1,.287,2.857v1.978h-4.344Zm.338-4.868a1.609,1.609,0,0,0-.27.794,14,14,0,0,0-.068,1.69v.828h1.893V36.58a14.36,14.36,0,0,0-.068-1.69,1.557,1.557,0,0,0-.27-.811.776.776,0,0,0-.609-.237A.789.789,0,0,0,452.274,34.095Z" transform="translate(-402.676 -27.468)" fill="#282828"/>
        <path id="Path_7341" data-name="Path 7341" d="M175.958,18.883,173,8.2h2.586l1.031,4.835c.27,1.2.456,2.214.592,3.043h.068c.085-.609.287-1.606.592-3.026L178.933,8.2h2.586l-2.992,10.667v5.122h-2.553V18.883Z" transform="translate(-173 -7.608)" fill="#282828"/>
        <path id="Path_7342" data-name="Path 7342" d="M277.015,33.4V44.946h-2.029l-.22-1.42h-.051a2.677,2.677,0,0,1-2.485,1.606,1.932,1.932,0,0,1-1.69-.761,3.988,3.988,0,0,1-.541-2.35V33.4h2.6v8.469a2.514,2.514,0,0,0,.169,1.1.584.584,0,0,0,.558.321,1.153,1.153,0,0,0,.642-.2,1.354,1.354,0,0,0,.456-.524V33.4Z" transform="translate(-253.602 -28.548)" fill="#282828"/>
        <path id="Path_7343" data-name="Path 7343" d="M355.915,33.4V44.946h-2.029l-.22-1.42h-.051a2.677,2.677,0,0,1-2.485,1.606,1.932,1.932,0,0,1-1.69-.761,3.988,3.988,0,0,1-.541-2.35V33.4h2.6v8.469a2.514,2.514,0,0,0,.169,1.1.584.584,0,0,0,.558.321,1.153,1.153,0,0,0,.642-.2,1.354,1.354,0,0,0,.456-.524V33.4Z" transform="translate(-319.164 -28.548)" fill="#282828"/>
        <path id="Path_7344" data-name="Path 7344" d="M315.408,10.3h-2.586V24.005h-2.536V10.3H307.7V8.2h7.691v2.1Z" transform="translate(-284.93 -7.608)" fill="#282828"/>
        <path id="Path_7345" data-name="Path 7345" d="M406.632,11.394a2.979,2.979,0,0,0-.761-1.589,2.071,2.071,0,0,0-1.454-.49,2.384,2.384,0,0,0-1.335.406,2.783,2.783,0,0,0-.964,1.065H402.1V4.7h-2.5V21.08h2.147l.27-1.1h.051a2.365,2.365,0,0,0,.9.93,2.749,2.749,0,0,0,1.335.338,2.06,2.06,0,0,0,1.944-1.217,8.866,8.866,0,0,0,.625-3.787V14.42A15.487,15.487,0,0,0,406.632,11.394Zm-2.383,4.716a14.828,14.828,0,0,1-.1,1.978,2.066,2.066,0,0,1-.355,1.014.818.818,0,0,1-.659.3,1.186,1.186,0,0,1-.592-.152,1.145,1.145,0,0,1-.44-.456V12.239a1.567,1.567,0,0,1,.456-.778.993.993,0,0,1,.693-.3.683.683,0,0,1,.609.3,2.419,2.419,0,0,1,.3,1.048c.051.49.085,1.183.085,2.1Z" transform="translate(-361.295 -4.7)" fill="#282828"/>
    </g>
</svg>
