<svg id="ICON_" data-name="ICON "
    xmlns="http://www.w3.org/2000/svg" width="81.429" height="26.854" viewBox="0 0 81.429 26.854">
    <path id="HULU" d="M49.9,26.954h6.487V.1H49.9V26.954ZM38.508,19.3a1.755,1.755,0,0,1-1.735,1.735H33A1.755,1.755,0,0,1,31.267,19.3V8.473H24.78V19.826c0,4.639,2.98,7.091,7.355,7.091H38.47c4.036,0,6.487-2.9,6.487-7.091V8.473H38.47C38.508,8.473,38.508,18.958,38.508,19.3ZM74.98,8.473V19.3a1.755,1.755,0,0,1-1.735,1.735H69.473A1.755,1.755,0,0,1,67.738,19.3V8.473H61.251V19.826c0,4.639,2.98,7.091,7.355,7.091h6.336c4.036,0,6.487-2.9,6.487-7.091V8.473H74.98Zm-62.156,0H8.675a5.072,5.072,0,0,0-2.188.377V.1H0V26.916H6.449V16.129a1.755,1.755,0,0,1,1.735-1.735h3.772a1.755,1.755,0,0,1,1.735,1.735V26.954h6.487V15.262c0-4.9-3.281-6.789-7.355-6.789Z" transform="translate(0 -0.1)" fill="#1ce783"/>
</svg>
