<svg id="Channel_Guide_ICON" data-name="Channel Guide ICON"
    xmlns="http://www.w3.org/2000/svg" width="24" height="24" viewBox="0 0 24 24">
    <rect id="Guide" width="24" height="24" fill="#ffd295" opacity="0"/>
    <path id="FontAwsome_list-alt_" data-name="FontAwsome (list-alt)" d="M21.75,53H2.25A2.25,2.25,0,0,1,0,50.75V34.25A2.25,2.25,0,0,1,2.25,32h19.5A2.25,2.25,0,0,1,24,34.25v16.5A2.25,2.25,0,0,1,21.75,53ZM6,36.125A1.875,1.875,0,1,0,7.875,38,1.875,1.875,0,0,0,6,36.125Zm0,4.5A1.875,1.875,0,1,0,7.875,42.5,1.875,1.875,0,0,0,6,40.625Zm0,4.5A1.875,1.875,0,1,0,7.875,47,1.875,1.875,0,0,0,6,45.125ZM19.5,38.75v-1.5a.563.563,0,0,0-.563-.562H9.563A.563.563,0,0,0,9,37.25v1.5a.563.563,0,0,0,.563.563h9.375A.563.563,0,0,0,19.5,38.75Zm0,4.5v-1.5a.563.563,0,0,0-.563-.562H9.563A.563.563,0,0,0,9,41.75v1.5a.563.563,0,0,0,.563.563h9.375A.563.563,0,0,0,19.5,43.25Zm0,4.5v-1.5a.563.563,0,0,0-.563-.562H9.563A.563.563,0,0,0,9,46.25v1.5a.563.563,0,0,0,.563.563h9.375A.563.563,0,0,0,19.5,47.75Z" transform="translate(0 -30.999)" fill="#ffd295"/>
</svg>
